# xmcd
# Copyright (C) 1995-1998 Ti Kan
#
# Track frame offsets:
#       150
#       20250
#       45298
#       63565
#       81562
#
# Disc length: 1358 seconds
#
# Revision: 0
# Processed by: cddbd v1.5.2PL0 Copyright (c) Steve Scherf et al.
# Submitted via: CD-Import v1.0
#
DISCID=37054c05
DTITLE=Axel - 
DYEAR=14
DGENRE=
TTITLE0=Tower Of Lies
TTITLE1=Long Way To Go
TTITLE2=Keep It The Healthy
TTITLE3=Master Card
TTITLE4=This Land Is Your Land
EXTD=
EXTT0=
EXTT1=
EXTT2=
EXTT3=
EXTT4=
PLAYORDER=
